:FULLY-SPECIFIED
:FORCE-ALL-JOINTS-BE-3DOF
:DEGREES
408
root 7.15854 13.795 -34.2327 158.397 75.1091 152.029
lfemur 19.4115 -2.36518 -10.2968
ltibia 22.487 -0 0
lfoot -23.3518 33.4608 0.00131199
ltoes -26.5956 0 0
rfemur -66.7275 -16.665 8.44197
rtibia 80.0453 -0 0
rfoot -14.7007 13.4629 0.0318206
rtoes 10.6387 -0 0
lowerback 8.22655 4.98355 -11.8862
upperback -2.64851 5.28646 -1.31306
thorax -8.46556 3.15432 4.35492
lowerneck 0.461776 -11.6042 -11.3386
upperneck 3.29497 -15.7631 9.13504
head 2.51861 -7.88018 3.97366
lclavicle -4.1869e-14 -3.57812e-15 0
lhumerus -70.5898 -19.3059 106.452
lradius 100.28 -0 0
lwrist 51.2892 0 0
lhand -10.0186 42.9342 -0.000348558
lfingers 7.12502 -0 0
lthumb 15.9659 72.2971 -0.000180469
rclavicle -4.1869e-14 -3.57812e-15 0
rhumerus 49.8022 -4.03682 -60.1693
rradius 18.6881 -0 0
rwrist 20.2904 0 0
rhand -22.2745 -32.853 0.0493643
rfingers 7.12502 -0 0
rthumb 4.1444 -62.8133 0.0431186
409
root 7.16779 13.7915 -34.2408 158.654 75.1407 152.334
lfemur 19.1934 -2.4413 -10.2949
ltibia 22.8731 -0 0
lfoot -23.3592 33.3678 0.00108111
ltoes -26.6551 0 0
rfemur -66.5959 -16.576 8.3972
rtibia 79.8125 -0 0
rfoot -14.5584 13.3795 0.0208659
rtoes 10.5059 -0 0
lowerback 8.28052 4.95291 -11.8276
upperback -2.62617 5.24935 -1.26891
thorax -8.46479 3.13373 4.37701
lowerneck 0.485714 -11.6086 -11.3449
upperneck 3.27796 -15.7721 9.16812
head 2.51569 -7.88508 3.98638
lclavicle -4.1869e-14 -3.57812e-15 0
lhumerus -70.468 -19.5003 106.464
lradius 100.278 -0 0
lwrist 51.232 0 0
lhand -9.9659 42.9275 -6.34673e-05
lfingers 7.12502 -0 0
lthumb 16.0166 72.2859 1.97367e-05
rclavicle -4.1869e-14 -3.57812e-15 0
rhumerus 49.6232 -3.95419 -59.9732
rradius 19.092 -0 0
rwrist 19.6922 0 0
rhand -22.0845 -32.9343 0.0343465
rfingers 7.12502 -0 0
rthumb 4.32768 -62.8843 0.0300463
410
root 7.17705 13.7881 -34.249 158.953 75.1665 152.683
lfemur 18.9435 -2.53562 -10.2897
ltibia 23.3079 -0 0
lfoot -23.3621 33.2706 0.000644404
ltoes -26.7105 0 0
rfemur -66.4605 -16.4814 8.35264
rtibia 79.5714 -0 0
rfoot -14.4126 13.2945 0.0102377
rtoes 10.3461 -0 0
lowerback 8.34133 4.9219 -11.7636
upperback -2.60057 5.21181 -1.22313
thorax -8.46409 3.11259 4.39768
lowerneck 0.516307 -11.6188 -11.3544
upperneck 3.25339 -15.7896 9.21162
head 2.51108 -7.8942 4.00258
lclavicle -4.1869e-14 -3.57812e-15 0
lhumerus -70.3448 -19.7162 106.467
lradius 100.277 -0 0
lwrist 51.1682 0 0
lhand -9.90924 42.9216 5.76265e-05
lfingers 7.12502 -0 0
lthumb 16.0711 72.2753 8.37173e-05
rclavicle -4.1869e-14 -3.57812e-15 0
rhumerus 49.4325 -3.88188 -59.7567
rradius 19.5212 -0 0
rwrist 19.0505 0 0
rhand -21.8854 -33.0297 0.0178822
rfingers 7.12502 -0 0
rthumb 4.51963 -62.9688 0.0156652
411
root 7.1863 13.7847 -34.2571 159.297 75.1858 153.078
lfemur 18.6608 -2.64898 -10.2808
ltibia 23.7931 0 0
lfoot -23.3599 33.1691 0
ltoes -26.7615 0 0
rfemur -66.3214 -16.3813 8.30861
rtibia 79.3225 0 0
rfoot -14.2636 13.2081 0
rtoes 10.1582 0 0
lowerback 8.40914 4.89058 -11.6943
upperback -2.57162 5.17394 -1.17575
thorax -8.46346 3.09095 4.41678
lowerneck 0.553975 -11.6349 -11.3675
upperneck 3.2208 -15.8159 9.26617
head 2.50468 -7.9078 4.02246
lclavicle -4.1869e-14 -3.57812e-15 0
lhumerus -70.2204 -19.9544 106.459
lradius 100.279 0 0
lwrist 51.0973 0 0
lhand -9.84827 42.9166 0
lfingers 7.12502 0 0
lthumb 16.1298 72.2654 0
rclavicle -4.1869e-14 -3.57812e-15 0
rhumerus 49.2299 -3.82067 -59.519
rradius 19.9761 0 0
rwrist 18.3642 0 0
rhand -21.6774 -33.1399 0
rfingers 7.12502 0 0
rthumb 4.72027 -63.0674 0
412
root 7.12532 13.7941 -34.2774 159.717 75.1822 153.558
lfemur 18.3461 -2.79807 -10.2699
ltibia 24.3461 -0 0
lfoot -23.3524 33.0572 -0.000823699
ltoes -26.8171 0 0
rfemur -66.1789 -16.2709 8.25909
rtibia 79.0414 -0 0
rfoot -14.0966 13.1253 -0.0100942
rtoes 9.93257 -0 0
lowerback 8.4871 4.85819 -11.6172
upperback -2.53797 5.13474 -1.12541
thorax -8.463 3.06821 4.43456
lowerneck 0.597029 -11.655 -11.3817
upperneck 3.18079 -15.848 9.3289
head 2.49625 -7.92431 4.04502
lclavicle 6.54499e-14 -1.98785e-15 0
lhumerus -70.0989 -20.216 106.437
lradius 100.289 -0 0
lwrist 51.0257 0 0
lhand -9.78498 42.9121 -0.000132063
lfingers 7.12502 -0 0
lthumb 16.1907 72.2559 -0.000141173
rclavicle 6.54499e-14 -1.98785e-15 0
rhumerus 49.0007 -3.7754 -59.26
rradius 20.4602 -0 0
rwrist 17.6093 0 0
rhand -21.4563 -33.2748 -0.0212792
rfingers 7.12502 -0 0
rthumb 4.93358 -63.1902 -0.0190451
